# xmcd
#
# Track frame offsets:
#	150
#	15675
#	26663
#	45047
#	58433
#	73159
#	82362
#	93563
#	110154
#	126784
#	138667
#	149827
#
# Disc length: 2174 seconds
#
# Revision: 1
# Processed by: cddbd v1.5.2PL0 Copyright (c) Steve Scherf et al.
# Submitted via: audiograbber 1.83.01
#
DISCID=be087c0c
DTITLE=The Everly Brothers - Pass The Chicken And Listen
DYEAR=1973
DGENRE=Country
TTITLE0=Lay It Down
TTITLE1=Husbands And Wives
TTITLE2=Woman Don't You Try To Tie Me Down
TTITLE3=Sweet Memories
TTITLE4=Ladies Love Outlaws
TTITLE5=Not Fade Away
TTITLE6=Watchin' It Go
TTITLE7=Paradise
TTITLE8=Somebody Nobody Knows
TTITLE9=Good Hearted Woman
TTITLE10=A Nickel For The Fiddler
TTITLE11=Rocky Top
EXTD=
EXTT0=
EXTT1=
EXTT2=
EXTT3=
EXTT4=
EXTT5=
EXTT6=
EXTT7=
EXTT8=
EXTT9=
EXTT10=
EXTT11=
PLAYORDER=
